<svg width="129" height="18" viewBox="0 0 129 18" fill="none" xmlns="http://www.w3.org/2000/svg">
<path d="M6.31204 11.141H10.8935V17.6669H9.43266V15.6028C9.16719 16.0688 8.83507 16.4683 8.43668 16.8679C7.5736 17.6005 6.51111 18 5.44871 18C2.39428 18 0.00390625 15.0035 0.00390625 11.1411C0.00390625 7.27881 2.39428 4.21561 5.38238 4.21561C7.04225 4.14908 8.50313 5.08134 9.29984 6.47968V4.41542H10.6943V8.61072H9.23364C9.10073 8.01141 8.83507 7.47869 8.50313 7.01248C7.83908 6.14682 6.77681 5.61404 5.71441 5.54752C4.12086 5.54752 1.73049 6.94596 1.73049 11.008C1.73049 14.2043 3.45681 16.535 5.71441 16.535C7.50719 16.4684 8.96807 15.1366 9.29997 13.4053C9.36643 13.0724 9.36643 12.6728 9.36643 12.3399H6.24554L6.31204 11.141Z" fill="#87858E"/>
<path d="M19.1935 12.5398L18.264 12.673C15.2096 13.0725 14.2136 13.6053 14.2136 14.8704C14.2801 16.0026 15.2096 16.8017 16.2721 16.8017C17.7327 16.735 18.9944 15.6695 19.1936 14.2045L19.1935 12.5398ZM22.0487 17.7339H19.1935V15.936C18.5295 17.2013 17.2015 17.9337 15.8072 17.9337C14.1472 18.0669 12.6863 16.7352 12.5535 15.0704V14.8706C12.5535 12.9395 14.2135 12.0072 18.1976 11.6076L19.1271 11.541V10.5422C19.1271 9.41013 18.264 8.67759 16.8696 8.67759C15.4753 8.67759 14.7447 9.1437 14.4791 10.4755H12.9521C13.0848 9.67647 13.4832 8.94392 14.0808 8.41125C14.8113 7.81193 15.8072 7.54552 16.7369 7.54552C18.7953 7.54552 20.5218 8.47785 20.5218 11.0082V16.5353H21.9162L22.0487 17.7339Z" fill="#87858E"/>
<path d="M26.2321 9.54313C26.697 8.87721 27.5602 7.47874 29.4195 7.47874C30.7474 7.47874 31.4777 8.14466 31.7434 9.54313C32.009 9.07701 32.2745 8.67742 32.6731 8.2779C33.2707 7.74517 34.0011 7.41217 34.7978 7.41217C36.3249 7.41217 37.1881 8.41109 37.1881 10.1425V16.4686H38.5826V17.6673H35.7938V10.6753C35.7938 9.27691 35.329 8.61096 34.333 8.61096C32.6066 8.61096 31.6769 10.6753 31.6769 11.4078V16.4686H33.1378V17.6673H30.2163V10.4756C30.2163 9.21032 29.7514 8.67764 28.7554 8.67764C27.2283 8.67764 26.0993 10.6087 26.0993 11.541V16.5353H27.5602V17.734H23.2441V16.5353H24.705V8.81081H23.2441V7.61217H26.1658L26.2321 9.54313Z" fill="#87858E"/>
<path d="M42.8977 13.4724C42.8977 15.1371 44.1593 16.4688 45.7529 16.6022C47.4792 16.6022 48.5416 15.0705 48.5416 12.6067C48.5416 10.143 47.4129 8.67787 45.7529 8.67787C44.292 8.67787 42.8312 10.276 42.8312 11.7411L42.8977 13.4724ZM40.109 3.94991H42.8977V9.74333C43.2961 9.01081 44.4248 7.54577 46.1514 7.54577C48.409 7.54577 50.1353 9.87649 50.1353 12.8065C50.1353 15.5367 48.276 17.8673 46.1514 17.8673C44.3586 17.8673 43.4953 16.6687 42.8977 15.8696V17.7342H40.0425V16.5355H41.4369V5.14849H40.109V3.94991Z" fill="#87858E"/>
<path d="M50.9871 3.94951H53.8423V16.5352H55.1702V17.7338H50.9206V16.5352H52.3815V5.08148H50.9871V3.94951Z" fill="#87858E"/>
<path d="M63.4707 11.8733C63.4707 10.9411 63.1388 10.0754 62.4747 9.3429C62.01 8.94338 61.4123 8.67698 60.8147 8.74358C59.5532 8.81018 58.4908 9.67591 58.1589 10.8745C58.0924 11.2075 57.9597 11.5404 57.9597 11.8733L63.4707 11.8733ZM64.9316 14.9365C64.7988 15.5358 64.5332 16.002 64.1348 16.468C63.338 17.4004 62.2092 17.9331 60.9476 17.9331C58.225 17.9331 56.2996 15.8023 56.2996 12.7391C56.2996 9.80905 58.2252 7.54497 60.682 7.54497C63.1388 7.54497 65.1309 9.4762 65.1309 13.0054H57.8933C58.026 14.4704 58.3581 15.3361 59.022 16.0021C59.5533 16.4681 60.2172 16.7345 60.8812 16.7345C62.0101 16.7345 62.7405 16.2019 63.2716 15.0031L64.9316 14.9365Z" fill="#87858E"/>
<path d="M72.8325 7.01273L71.1061 12.8728H74.5588L72.8325 7.01273ZM71.2389 4.54884H74.4261L78.0782 15.603H79.0741V17.7338H76.0862L75.2229 14.8704H70.575L69.7117 17.7338H66.6573V15.603H67.6534L71.2389 4.54884Z" fill="#87858E"/>
<path d="M78.9423 7.67856H82.9262V9.60965H81.9302L83.3246 15.5362L84.9846 7.67856H87.5742L89.2342 15.4032L90.5622 9.60978H89.5662V7.67869H93.5501V9.60978H92.6871L90.5621 17.6671H87.9061L86.2462 10.7418L84.6524 17.6671H81.9966L79.8052 9.60978H78.9421L78.9423 7.67856Z" fill="#87858E"/>
<path d="M100.588 13.0061C98.2643 13.2058 96.7371 13.4056 96.7371 14.8039C96.7371 15.6031 97.4009 16.1358 98.3969 16.1358C99.5923 16.1358 100.588 15.2036 100.655 14.0049V13.006L100.588 13.0061ZM102.979 15.803H103.842V17.7341H100.721V16.5354C99.9905 17.4676 98.8618 17.9338 97.6666 17.9338C95.6746 17.9338 94.1474 16.6022 94.1474 14.804C94.1474 11.8741 97.4675 11.5411 100.655 11.2748C100.655 9.74317 100.123 9.27703 98.8618 9.27703C97.6001 9.27703 97.1355 9.87634 97.069 10.8086V10.8752L94.6786 10.8086C94.8114 8.81088 96.4049 7.54561 98.7953 7.54561C101.584 7.54561 103.045 8.81087 103.045 11.075L102.979 15.803Z" fill="#87858E"/>
<path d="M108.551 9.2768C109.215 8.01162 109.946 7.47887 111.074 7.47887C111.473 7.47887 111.805 7.54539 112.203 7.61201V9.94273C111.805 9.87612 111.407 9.80953 111.008 9.80953C109.747 9.743 108.684 10.6753 108.618 11.8739V15.7362H109.813V17.6673H105.165V15.7362H106.161V9.60984H105.165V7.67875H108.551L108.551 9.2768Z" fill="#87858E"/>
<path d="M119.64 11.4742C119.64 10.3422 118.711 9.47647 117.648 9.47647H117.582C116.453 9.47647 115.523 10.3421 115.324 11.4077L119.64 11.4742ZM122.23 14.4041C121.765 16.6018 119.972 17.9335 117.582 17.9335C114.793 17.9335 112.735 15.736 112.735 12.6728C112.735 9.60964 114.793 7.41221 117.582 7.41221C119.109 7.41221 120.57 8.14466 121.433 9.47647C122.097 10.6085 122.496 11.8737 122.429 13.2055H115.258C115.524 15.8026 117.184 15.9357 117.649 15.9357C118.578 16.0024 119.441 15.3365 119.707 14.4706L122.23 14.4041Z" fill="#87858E"/>
<path d="M126.174 2.98843C126.269 2.97207 126.351 2.94158 126.422 2.89595C126.492 2.85049 126.549 2.78935 126.592 2.71203C126.633 2.63522 126.655 2.53586 126.655 2.4129C126.655 2.2431 126.607 2.10464 126.513 1.99804C126.42 1.89127 126.267 1.83806 126.058 1.83806H124.948V3.01185H125.879C125.982 3.01185 126.082 3.00393 126.174 2.98843ZM126.082 1.46074C126.401 1.46074 126.65 1.53893 126.83 1.69633C127.011 1.85356 127.1 2.06882 127.1 2.34195C127.1 2.54688 127.055 2.72563 126.963 2.87976C126.87 3.03389 126.722 3.13928 126.518 3.19577V3.2049C126.616 3.22384 126.695 3.25501 126.757 3.2991C126.817 3.34353 126.865 3.39605 126.901 3.45719C126.937 3.51832 126.964 3.58669 126.981 3.66212C126.999 3.73755 127.012 3.81607 127.021 3.89805C127.028 3.98002 127.031 4.06337 127.035 4.14775C127.038 4.233 127.047 4.31617 127.059 4.39763C127.071 4.47943 127.09 4.55762 127.114 4.63098C127.136 4.7052 127.172 4.77012 127.218 4.82678H126.72C126.69 4.79217 126.667 4.74481 126.657 4.68557C126.645 4.62581 126.638 4.55882 126.636 4.4846C126.633 4.41124 126.629 4.33185 126.626 4.2466C126.623 4.16205 126.614 4.07887 126.599 3.9969C126.585 3.9151 126.569 3.8376 126.55 3.76355C126.532 3.69002 126.502 3.62561 126.461 3.57033C126.422 3.51505 126.367 3.47148 126.301 3.43841C126.236 3.40518 126.149 3.38899 126.039 3.38899H124.948V4.82678H124.501V1.46074H126.082Z" fill="#87858E"/>
<path d="M125.75 0.53265C124.249 0.53265 123.028 1.75742 123.028 3.26271C123.028 4.76819 124.249 5.99295 125.75 5.99295C127.251 5.99295 128.473 4.76815 128.473 3.26271C128.473 1.75742 127.251 0.53265 125.75 0.53265ZM125.75 6.5256C123.957 6.5256 122.497 5.06177 122.497 3.26271C122.497 1.4638 123.957 0 125.75 0C127.544 0 129.004 1.4638 129.004 3.26271C129.004 5.0618 127.544 6.5256 125.75 6.5256Z" fill="#87858E"/>
</svg>
