<svg width="24" height="24" viewBox="0 0 24 24" fill="none" xmlns="http://www.w3.org/2000/svg">
<g id="Toast Coin">
<circle id="Ellipse 1722" cx="12" cy="12" r="11.4" fill="#D9D9D9" stroke="#B17505" stroke-width="1.2"/>
<circle id="Ellipse 1723" cx="12" cy="12" r="10.9" fill="url(#paint0_linear_270_6738)" stroke="url(#paint1_linear_270_6738)" stroke-width="1.2"/>
<circle id="Ellipse 1724" cx="12" cy="12" r="9.5" fill="url(#paint2_linear_270_6738)"/>
<g id="Vector">
<path d="M15.3634 7.49227H8.63659C8.00561 7.49227 7.49223 8.06193 7.49223 8.76214C7.49223 9.1942 7.69028 9.59364 8.02204 9.83063C8.12981 9.90763 8.19376 10.0319 8.19376 10.1644V15.2985C8.19376 15.9653 8.68196 16.5077 9.28202 16.5077H14.6846C15.2847 16.5077 15.7729 15.9653 15.7729 15.2985V10.1875C15.7729 10.0513 15.8405 9.92395 15.9534 9.84766C16.2953 9.61661 16.5077 9.20066 16.5077 8.76212C16.5077 8.06193 15.9944 7.49227 15.3634 7.49227ZM9.77426 13.2426C9.66929 13.2426 9.56431 13.2026 9.48425 13.1224C9.32407 12.9623 9.32407 12.7026 9.48425 12.5424L12.5424 9.48427C12.7026 9.32409 12.9623 9.32409 13.1224 9.48427C13.2826 9.64445 13.2826 9.90413 13.1224 10.0643L10.0643 13.1224C9.9842 13.2025 9.87923 13.2426 9.77426 13.2426ZM14.5157 11.4576L11.4576 14.5157C11.3775 14.5958 11.2725 14.6359 11.1675 14.6359C11.0626 14.6359 10.9576 14.5959 10.8775 14.5157C10.7173 14.3556 10.7173 14.0959 10.8775 13.9357L13.9357 10.8776C14.0958 10.7174 14.3556 10.7174 14.5157 10.8776C14.6759 11.0377 14.6759 11.2974 14.5157 11.4576Z" fill="url(#paint3_linear_270_6738)"/>
<path d="M15.3634 5L8.63657 5C6.63134 5 4.99998 6.68768 4.99998 8.76214C4.99998 9.52899 5.23091 10.2841 5.65415 10.9125C5.68445 10.9575 5.70149 11.0103 5.70149 11.0645L5.70149 15.2985C5.70149 17.3395 7.30772 19 9.28202 19H14.6846C16.6589 19 18.2651 17.3395 18.2651 15.2985V11.1154C18.2651 11.0597 18.2831 11.0055 18.3149 10.9598C18.7581 10.3235 19 9.5519 19 8.76212C19 6.68768 17.3686 5 15.3634 5ZM16.6829 10.3087C16.6275 10.362 16.5932 10.4343 16.5932 10.5111V15.2985C16.5932 16.4176 15.737 17.3281 14.6846 17.3281H9.28202C8.22964 17.3281 7.37345 16.4176 7.37345 15.2985V10.478C7.37345 10.4033 7.34097 10.3328 7.28826 10.2799C6.89771 9.88761 6.67192 9.34126 6.67192 8.76212C6.67192 7.60958 7.55326 6.67193 8.63659 6.67193L15.3634 6.67193C16.4467 6.67193 17.3281 7.60958 17.3281 8.76212C17.3281 9.35884 17.0917 9.91539 16.6829 10.3087Z" fill="url(#paint4_linear_270_6738)"/>
</g>
</g>
<defs>
<linearGradient id="paint0_linear_270_6738" x1="12" y1="0.5" x2="12" y2="23.5" gradientUnits="userSpaceOnUse">
<stop stop-color="#B17505"/>
<stop offset="0.55" stop-color="#F0B51E"/>
<stop offset="1" stop-color="#FFDA7C"/>
</linearGradient>
<linearGradient id="paint1_linear_270_6738" x1="12" y1="-6.01871" x2="12" y2="23.5" gradientUnits="userSpaceOnUse">
<stop stop-color="#FFE391"/>
<stop offset="0.773414" stop-color="#D5A845"/>
<stop offset="1" stop-color="#B17505"/>
</linearGradient>
<linearGradient id="paint2_linear_270_6738" x1="12" y1="-7.33827" x2="12" y2="38.1209" gradientUnits="userSpaceOnUse">
<stop offset="0.5" stop-color="#FFE291"/>
<stop offset="1" stop-color="#995C00"/>
</linearGradient>
<linearGradient id="paint3_linear_270_6738" x1="14.9595" y1="5" x2="12" y2="35.1586" gradientUnits="userSpaceOnUse">
<stop stop-color="#854A04"/>
<stop offset="0.2" stop-color="#C08A00"/>
<stop offset="0.456185" stop-color="#7B4A01"/>
<stop offset="1" stop-color="#FFDA7C"/>
</linearGradient>
<linearGradient id="paint4_linear_270_6738" x1="14.9595" y1="5" x2="12" y2="35.1586" gradientUnits="userSpaceOnUse">
<stop stop-color="#854A04"/>
<stop offset="0.2" stop-color="#C08A00"/>
<stop offset="0.456185" stop-color="#7B4A01"/>
<stop offset="1" stop-color="#FFDA7C"/>
</linearGradient>
</defs>
</svg>
